<svg id="visual" viewBox="0 0 900 600" width="900" height="600" xmlns="http://www.w3.org/2000/svg" xmlns:xlink="http://www.w3.org/1999/xlink" version="1.1"><g stroke-width="1" stroke-linejoin="bevel"><path d="M523 319L391 363L485 393Z" fill="#1138cd" stroke="#1138cd"></path><path d="M523 319L367 291L391 363Z" fill="#1134be" stroke="#1134be"></path><path d="M367 291L311 334L391 363Z" fill="#1138cd" stroke="#1138cd"></path><path d="M523 319L379 206L367 291Z" fill="#1134be" stroke="#1134be"></path><path d="M367 291L284 226L311 334Z" fill="#123bd9" stroke="#123bd9"></path><path d="M311 334L296 370L391 363Z" fill="#1134be" stroke="#1134be"></path><path d="M391 363L478 501L485 393Z" fill="#1135c2" stroke="#1135c2"></path><path d="M430 527L478 501L391 363Z" fill="#123cdd" stroke="#123cdd"></path><path d="M617 428L636 278L523 319Z" fill="#1133ba" stroke="#1133ba"></path><path d="M523 319L519 169L379 206Z" fill="#1135c2" stroke="#1135c2"></path><path d="M617 428L523 319L485 393Z" fill="#1137c9" stroke="#1137c9"></path><path d="M523 319L588 169L519 169Z" fill="#1137c9" stroke="#1137c9"></path><path d="M599 481L617 428L485 393Z" fill="#123bd9" stroke="#123bd9"></path><path d="M303 529L430 527L391 363Z" fill="#1134be" stroke="#1134be"></path><path d="M478 501L599 481L485 393Z" fill="#1135c2" stroke="#1135c2"></path><path d="M288 137L284 226L379 206Z" fill="#123bd9" stroke="#123bd9"></path><path d="M379 206L284 226L367 291Z" fill="#1137c9" stroke="#1137c9"></path><path d="M311 334L187 279L296 370Z" fill="#1136c5" stroke="#1136c5"></path><path d="M588 169L534 137L519 169Z" fill="#113ad5" stroke="#113ad5"></path><path d="M519 169L374 92L379 206Z" fill="#123bd9" stroke="#123bd9"></path><path d="M575 600L599 481L478 501Z" fill="#1139d1" stroke="#1139d1"></path><path d="M636 278L588 169L523 319Z" fill="#1135c2" stroke="#1135c2"></path><path d="M170 436L303 529L296 370Z" fill="#1138cd" stroke="#1138cd"></path><path d="M296 370L303 529L391 363Z" fill="#1133ba" stroke="#1133ba"></path><path d="M534 137L374 92L519 169Z" fill="#1135c2" stroke="#1135c2"></path><path d="M374 92L288 137L379 206Z" fill="#1136c5" stroke="#1136c5"></path><path d="M617 428L718 362L636 278Z" fill="#1134be" stroke="#1134be"></path><path d="M636 278L730 209L588 169Z" fill="#1135c2" stroke="#1135c2"></path><path d="M766 470L718 362L617 428Z" fill="#1136c5" stroke="#1136c5"></path><path d="M196 163L187 279L284 226Z" fill="#113ad5" stroke="#113ad5"></path><path d="M284 226L187 279L311 334Z" fill="#1139d1" stroke="#1139d1"></path><path d="M364 600L485 600L430 527Z" fill="#123cdd" stroke="#123cdd"></path><path d="M430 527L485 600L478 501Z" fill="#123cdd" stroke="#123cdd"></path><path d="M599 481L738 519L617 428Z" fill="#123bd9" stroke="#123bd9"></path><path d="M718 362L724 302L636 278Z" fill="#123de1" stroke="#123de1"></path><path d="M303 529L364 600L430 527Z" fill="#1133ba" stroke="#1133ba"></path><path d="M485 600L575 600L478 501Z" fill="#123bd9" stroke="#123bd9"></path><path d="M724 302L730 209L636 278Z" fill="#1134be" stroke="#1134be"></path><path d="M588 169L620 77L534 137Z" fill="#1135c2" stroke="#1135c2"></path><path d="M187 279L170 436L296 370Z" fill="#1136c5" stroke="#1136c5"></path><path d="M303 529L306 600L364 600Z" fill="#1134be" stroke="#1134be"></path><path d="M697 112L620 77L588 169Z" fill="#1139d1" stroke="#1139d1"></path><path d="M534 137L480 0L374 92Z" fill="#1134be" stroke="#1134be"></path><path d="M288 137L196 163L284 226Z" fill="#1137c9" stroke="#1137c9"></path><path d="M187 279L124 391L170 436Z" fill="#123de1" stroke="#123de1"></path><path d="M178 75L196 163L288 137Z" fill="#1137c9" stroke="#1137c9"></path><path d="M226 600L306 600L303 529Z" fill="#123cdd" stroke="#123cdd"></path><path d="M730 209L697 112L588 169Z" fill="#1133ba" stroke="#1133ba"></path><path d="M625 0L480 0L620 77Z" fill="#1139d1" stroke="#1139d1"></path><path d="M620 77L480 0L534 137Z" fill="#1133ba" stroke="#1133ba"></path><path d="M374 92L281 0L288 137Z" fill="#1136c5" stroke="#1136c5"></path><path d="M480 0L426 0L374 92Z" fill="#1139d1" stroke="#1139d1"></path><path d="M730 209L763 208L697 112Z" fill="#1139d1" stroke="#1139d1"></path><path d="M724 302L763 208L730 209Z" fill="#123cdd" stroke="#123cdd"></path><path d="M795 295L763 208L724 302Z" fill="#1135c2" stroke="#1135c2"></path><path d="M120 282L124 391L187 279Z" fill="#1137c9" stroke="#1137c9"></path><path d="M170 436L163 509L303 529Z" fill="#123cdd" stroke="#123cdd"></path><path d="M196 163L120 282L187 279Z" fill="#113ad5" stroke="#113ad5"></path><path d="M121 480L163 509L170 436Z" fill="#1138cd" stroke="#1138cd"></path><path d="M668 600L738 519L599 481Z" fill="#113ad5" stroke="#113ad5"></path><path d="M718 362L795 295L724 302Z" fill="#123bd9" stroke="#123bd9"></path><path d="M738 519L766 470L617 428Z" fill="#123cdd" stroke="#123cdd"></path><path d="M792 413L795 295L718 362Z" fill="#1135c2" stroke="#1135c2"></path><path d="M575 600L668 600L599 481Z" fill="#123bd9" stroke="#123bd9"></path><path d="M766 470L792 413L718 362Z" fill="#123cdd" stroke="#123cdd"></path><path d="M163 509L226 600L303 529Z" fill="#123de1" stroke="#123de1"></path><path d="M124 391L121 480L170 436Z" fill="#1139d1" stroke="#1139d1"></path><path d="M163 509L93 600L226 600Z" fill="#123bd9" stroke="#123bd9"></path><path d="M0 389L121 480L124 391Z" fill="#1135c2" stroke="#1135c2"></path><path d="M702 0L620 77L697 112Z" fill="#1138cd" stroke="#1138cd"></path><path d="M702 0L625 0L620 77Z" fill="#1138cd" stroke="#1138cd"></path><path d="M426 0L281 0L374 92Z" fill="#1137c9" stroke="#1137c9"></path><path d="M196 163L72 201L120 282Z" fill="#123cdd" stroke="#123cdd"></path><path d="M281 0L178 75L288 137Z" fill="#1139d1" stroke="#1139d1"></path><path d="M103 63L72 201L196 163Z" fill="#1136c5" stroke="#1136c5"></path><path d="M120 282L0 389L124 391Z" fill="#123bd9" stroke="#123bd9"></path><path d="M900 170L788 98L763 208Z" fill="#1137c9" stroke="#1137c9"></path><path d="M763 208L788 98L697 112Z" fill="#123bd9" stroke="#123bd9"></path><path d="M788 98L702 0L697 112Z" fill="#123bd9" stroke="#123bd9"></path><path d="M738 519L781 600L766 470Z" fill="#1133ba" stroke="#1133ba"></path><path d="M900 478L900 379L792 413Z" fill="#1133ba" stroke="#1133ba"></path><path d="M668 600L781 600L738 519Z" fill="#123bd9" stroke="#123bd9"></path><path d="M281 0L165 0L178 75Z" fill="#1139d1" stroke="#1139d1"></path><path d="M178 75L103 63L196 163Z" fill="#1136c5" stroke="#1136c5"></path><path d="M165 0L103 63L178 75Z" fill="#1135c2" stroke="#1135c2"></path><path d="M900 379L900 314L795 295Z" fill="#113ad5" stroke="#113ad5"></path><path d="M795 295L900 170L763 208Z" fill="#1136c5" stroke="#1136c5"></path><path d="M900 379L795 295L792 413Z" fill="#1137c9" stroke="#1137c9"></path><path d="M900 478L792 413L766 470Z" fill="#1139d1" stroke="#1139d1"></path><path d="M0 505L93 600L121 480Z" fill="#1137c9" stroke="#1137c9"></path><path d="M121 480L93 600L163 509Z" fill="#123bd9" stroke="#123bd9"></path><path d="M0 212L0 284L72 201Z" fill="#1136c5" stroke="#1136c5"></path><path d="M72 201L0 284L120 282Z" fill="#113ad5" stroke="#113ad5"></path><path d="M0 284L0 389L120 282Z" fill="#1136c5" stroke="#1136c5"></path><path d="M165 0L123 0L103 63Z" fill="#1135c2" stroke="#1135c2"></path><path d="M0 90L0 212L72 201Z" fill="#1134be" stroke="#1134be"></path><path d="M0 90L72 201L103 63Z" fill="#1134be" stroke="#1134be"></path><path d="M781 600L900 478L766 470Z" fill="#123bd9" stroke="#123bd9"></path><path d="M900 314L900 170L795 295Z" fill="#113ad5" stroke="#113ad5"></path><path d="M788 98L797 0L702 0Z" fill="#1138cd" stroke="#1138cd"></path><path d="M900 108L797 0L788 98Z" fill="#1134be" stroke="#1134be"></path><path d="M0 389L0 505L121 480Z" fill="#1134be" stroke="#1134be"></path><path d="M900 170L900 108L788 98Z" fill="#1139d1" stroke="#1139d1"></path><path d="M0 0L0 90L103 63Z" fill="#1139d1" stroke="#1139d1"></path><path d="M781 600L900 600L900 478Z" fill="#1133ba" stroke="#1133ba"></path><path d="M0 505L0 600L93 600Z" fill="#123cdd" stroke="#123cdd"></path><path d="M900 108L900 0L797 0Z" fill="#123de1" stroke="#123de1"></path><path d="M123 0L0 0L103 63Z" fill="#1134be" stroke="#1134be"></path></g></svg>